<svg width="77" height="21" fill="none" xmlns="http://www.w3.org/2000/svg"><path d="M12.622 16.572V20H3.278v-3.428h9.344ZM4.865 1.516V20H.41V1.516h4.456Zm16.568 15.03v-5.661c0-.39-.055-.724-.165-1.003a1.322 1.322 0 0 0-.52-.648c-.238-.16-.555-.24-.953-.24-.322 0-.597.054-.825.164-.229.11-.402.275-.52.495-.12.22-.178.5-.178.838h-4.279c0-.635.14-1.223.42-1.764a4.364 4.364 0 0 1 1.218-1.435c.533-.406 1.168-.72 1.904-.94.745-.228 1.574-.342 2.488-.342 1.092 0 2.066.182 2.92.546.864.364 1.545.91 2.044 1.637.5.72.75 1.625.75 2.717v5.624c0 .897.05 1.579.152 2.044.101.457.245.86.431 1.206V20h-4.29c-.204-.423-.356-.94-.458-1.549a12.766 12.766 0 0 1-.14-1.904Zm.52-4.938.026 2.286h-1.892c-.398 0-.736.055-1.016.165-.27.11-.49.262-.66.457-.16.186-.28.397-.355.634a2.714 2.714 0 0 0-.102.75c0 .253.06.482.178.685.127.195.296.347.508.457.211.11.448.165.71.165.474 0 .877-.089 1.207-.267.338-.186.596-.41.774-.672.178-.263.267-.508.267-.737l.94 1.752c-.17.339-.365.681-.585 1.028a4.494 4.494 0 0 1-.8.965 3.813 3.813 0 0 1-1.155.711c-.457.178-1.011.267-1.663.267a5.254 5.254 0 0 1-2.336-.52 4.327 4.327 0 0 1-1.689-1.448c-.423-.626-.634-1.346-.634-2.158 0-.711.127-1.346.38-1.904a3.73 3.73 0 0 1 1.181-1.422c.525-.39 1.194-.686 2.006-.889.813-.203 1.769-.305 2.87-.305h1.84Zm10.36-2.412V20h-4.279V6.264h4.012l.267 2.932Zm-.508 3.466-1.003.025c0-1.049.127-1.984.38-2.805.255-.83.614-1.532 1.08-2.108a4.59 4.59 0 0 1 1.663-1.307c.652-.305 1.375-.457 2.17-.457a5.17 5.17 0 0 1 1.74.28c.533.185.99.486 1.371.9.39.415.686.965.889 1.65.211.678.317 1.516.317 2.514V20h-4.304v-8.658c0-.55-.076-.97-.228-1.257a1.219 1.219 0 0 0-.66-.61c-.288-.11-.64-.164-1.054-.164-.44 0-.813.084-1.117.253-.305.17-.55.407-.736.711a3.374 3.374 0 0 0-.394 1.054c-.076.406-.114.85-.114 1.333Zm18.878 4.19V.5h4.303V20h-3.859l-.444-3.148Zm-8.43-3.555v-.267c0-1.04.114-1.989.343-2.843.228-.864.567-1.604 1.015-2.222a4.587 4.587 0 0 1 1.676-1.447c.669-.339 1.439-.508 2.31-.508.78 0 1.46.182 2.045.546.584.355 1.083.854 1.498 1.498.414.643.753 1.396 1.015 2.26.263.854.462 1.777.597 2.767v.317a16.749 16.749 0 0 1-.597 2.641c-.262.821-.6 1.549-1.015 2.184a4.81 4.81 0 0 1-1.511 1.498c-.584.355-1.27.533-2.057.533-.872 0-1.642-.174-2.31-.52a4.737 4.737 0 0 1-1.663-1.46c-.44-.627-.775-1.363-1.003-2.21a10.595 10.595 0 0 1-.343-2.767Zm4.278-.267v.267c0 .516.034.994.102 1.434.067.44.182.83.343 1.168.169.33.389.589.66.775.279.186.622.28 1.028.28.55 0 1.003-.132 1.358-.394.364-.263.631-.635.8-1.118.178-.482.254-1.05.229-1.7v-1.004a6.051 6.051 0 0 0-.114-1.472c-.094-.432-.242-.792-.445-1.08a1.841 1.841 0 0 0-.749-.647c-.296-.152-.647-.228-1.053-.228-.398 0-.737.093-1.016.279-.271.186-.491.448-.66.787-.17.33-.292.724-.369 1.18-.076.45-.114.94-.114 1.473Zm15.4-6.766V20H57.64V6.264h4.29Zm-4.545-3.542c0-.61.22-1.109.66-1.498.44-.39 1.011-.584 1.714-.584.702 0 1.273.194 1.714.584.44.389.66.888.66 1.498 0 .609-.22 1.108-.66 1.498-.44.39-1.012.584-1.714.584-.703 0-1.274-.195-1.714-.584-.44-.39-.66-.889-.66-1.498Zm13.838 17.532c-1.118 0-2.116-.174-2.996-.52-.88-.356-1.625-.843-2.235-1.46a6.481 6.481 0 0 1-1.384-2.133 6.967 6.967 0 0 1-.47-2.552v-.483c0-1.007.14-1.938.42-2.793a6.522 6.522 0 0 1 1.244-2.26 5.555 5.555 0 0 1 2.07-1.497c.828-.364 1.793-.546 2.894-.546.973 0 1.845.156 2.615.47a5.32 5.32 0 0 1 1.955 1.345c.542.584.952 1.29 1.231 2.12.288.83.432 1.76.432 2.793v1.74H65.777v-2.68h7.046v-.33c.009-.456-.072-.846-.241-1.167a1.662 1.662 0 0 0-.71-.737c-.314-.169-.695-.253-1.144-.253-.465 0-.85.101-1.155.304a2.07 2.07 0 0 0-.698.838c-.16.347-.275.75-.343 1.206-.067.457-.101.94-.101 1.447v.483c0 .508.067.969.203 1.384.144.414.347.77.61 1.066.27.288.592.512.964.673.38.16.813.241 1.295.241.584 0 1.16-.11 1.727-.33a3.45 3.45 0 0 0 1.46-1.092l1.942 2.31c-.28.399-.677.784-1.194 1.156-.507.372-1.117.677-1.828.914-.71.229-1.506.343-2.386.343Z" fill="#37447E"/></svg>